<?xml version="1.0" encoding="UTF-8"?>
<svg width="1200pt" height="1200pt" version="1.1" viewBox="0 0 1200 1200" xmlns="http://www.w3.org/2000/svg">
 <path d="m142.73 558.29c-17.09 32.305-36.648 96.77 2.3164 190.7 5.4844 13.223 17.125 22.906 31.094 26.016l366.27 81.359 92.566 20.566c20.219 4.4883 41.375 1.4531 59.508-8.5547l388.74-214.44c19.379-10.691 43.777-3.6484 54.469 15.742 10.691 19.391 3.6484 43.777-15.742 54.469l-304.98 167.8 0.48047 0.16797-114.98 61.98c-15.324 8.0625-32.965 10.547-49.922 7.0078l-3.4336-0.75781-0.046874 0.023438-93.203-20.387-15.613-3.4062-18.684-4.0781-371.38-81.215c-15.719-3.4336-30.023-11.52-41.207-23.074-84.168-86.973-73.871-199.95-59.809-250.61 11.027-39.73 29.785-75 42.012-95.137 4.4297-7.2969 10.969-13.066 18.707-16.656l479.76-222.14c13.945-6.3359 29.566-7.9805 44.531-4.6562l494.05 109.56c37.223 8.2578 43.945 58.43 10.211 76.199l-406.44 214.08c-20.82 10.969-44.809 14.34-67.848 9.5273l-493.69-102.98c-11.074-2.3359-22.426 2.8867-27.73 12.906z" fill="#fff"/>
</svg>
