<?xml version="1.0" encoding="UTF-8"?>
<svg width="1200pt" height="1200pt" version="1.1" viewBox="0 0 1200 1200" xmlns="http://www.w3.org/2000/svg">
 <path d="m609.79 82.172 510.74 310.64c7.1719 4.3594 10.547 12.938 8.2969 21.047-2.2969 8.1094-9.6562 13.688-18.047 13.688h-1021.5c-8.3906 0-15.75-5.5781-18.047-13.688-2.25-8.1094 1.125-16.688 8.2969-21.047l510.74-310.64c6-3.7031 13.5-3.7031 19.5 0zm-415.64 764.44v-309.1h156.61v309.1zm327.56 0v-309.1h156.66v309.1zm327.61-0.28125v-308.81h156.61v308.81zm-700.78 91.172v-53.391c0-10.359 8.3906-18.75 18.75-18.75h210.32c10.359 0 18.75 8.3906 18.75 18.75v53.391zm327.61 0v-53.391c0-10.359 8.3906-18.75 18.703-18.75h210.37c10.312 0 18.703 8.3906 18.703 18.75v53.391zm327.56 0v-53.672c0-10.359 8.3906-18.75 18.75-18.75h210.32c10.359 0 18.75 8.3906 18.75 18.75v53.672zm246.32-491.21v53.719c0 10.359-8.3906 18.75-18.75 18.75h-210.32c-10.359 0-18.75-8.3906-18.75-18.75v-53.719zm-327.56 0v53.719c0 10.359-8.3906 18.75-18.797 18.75h-210.28c-10.359 0-18.797-8.3906-18.797-18.75v-53.719zm-327.61 0v53.719c0 10.359-8.3438 18.75-18.703 18.75h-210.37c-10.312 0-18.703-8.3906-18.703-18.75v-53.719zm730.18 528.74v126.79c0 10.359-8.3906 18.797-18.75 18.797h-1012.5c-10.359 0-18.75-8.4375-18.75-18.797v-126.79c0-10.359 8.3906-18.797 18.75-18.797h1012.5c10.359 0 18.75 8.4375 18.75 18.797z" fill="#fff" fill-rule="evenodd"/>
</svg>
