<?xml version="1.0" encoding="UTF-8"?>
<svg width="1200pt" height="1200pt" version="1.1" viewBox="0 0 1200 1200" xmlns="http://www.w3.org/2000/svg">
 <path d="m974.76 349.32h-464.04v-71.398c0-2.5195-0.23828-4.9219-0.71875-7.3203 0-0.23828-0.12109-0.35937-0.12109-0.60156-0.60156-2.5195-1.4414-5.0391-2.5195-7.3203-0.12109-0.23828-0.12109-0.60156-0.23828-0.83984l-71.398-142.8c-12.121-24.238-51.719-24.238-63.84 0l-71.398 142.8s-0.12109 0.60156-0.23828 0.83984c-1.0781 2.2812-2.0391 4.8008-2.5195 7.3203 0 0.23828-0.12109 0.35938-0.12109 0.60156-0.48047 2.3984-0.71875 4.8008-0.71875 7.3203v71.398h-71.398c-19.68 0-35.641 15.961-35.641 35.641v142.8c0 19.68 15.961 35.641 35.641 35.641h71.398v356.88h-35.641c-19.68 0-35.641 15.961-35.641 35.641v107.04c0 19.68 15.961 35.641 35.641 35.641h285.6c19.68 0 35.641-15.961 35.641-35.641v-107.04c0-19.68-15.961-35.641-35.641-35.641h-35.641v-355.56c2.6406-0.12109 5.2812-0.60156 7.8008-1.3203h123.48c3.2383 0.96094 6.4805 1.4414 9.7188 1.4414 3.2383 0 6.4805-0.60156 9.6016-1.4414h123.48c3.2383 0.96094 6.4805 1.4414 9.7188 1.4414s6.4805-0.60156 9.6016-1.4414h27.84v142.8c0 19.68 15.961 35.641 35.641 35.641 29.52 0 53.52 24 53.52 53.52s-24 53.52-53.52 53.52c-17.52 0-33.84-8.5195-43.922-22.922-11.281-16.199-33.48-20.039-49.68-8.7617-16.078 11.281-20.039 33.48-8.7617 49.68 23.398 33.48 61.68 53.398 102.36 53.398 68.879 0 124.92-56.039 124.92-124.92 0-56.52-37.68-104.28-89.281-119.76v-112.32h71.398c19.68 0 35.641-15.961 35.641-35.641v-142.8c0-19.68-15.961-35.641-35.641-35.641zm-194.52 142.8h-45.602l66-71.398h45.602zm-188.28 0 66-71.398h45.602l-66 71.398zm-224.04 107.76v-34.922h71.398v34.922zm71.398 71.398v34.922h-71.398v-34.922zm0-177.72h-71.398v-34.922h71.398zm0-106.32h-71.398v-73.559h71.398zm-71.398 390.36h71.398v34.922h-71.398zm192.72-356.88-50.039 54.121v-54.121zm-157.08-205.68 13.68 27.238h-27.238l13.68-27.238zm-142.8 205.68h35.641v71.398h-35.641zm249.84 606.84h-214.2v-35.641h214.2zm-142.8-107.04v-36.48h71.398v36.48zm509.52-428.28 61.559-66.602v66.602z" fill="#fff"/>
</svg>
