<?xml version="1.0" encoding="UTF-8"?>
<svg width="1200pt" height="1200pt" version="1.1" viewBox="0 0 1200 1200" xmlns="http://www.w3.org/2000/svg">
 <path d="m953.86 544.03c-9.1875-18.047-27.469-29.297-47.719-29.297h-233.39l21.188-358.03c1.4062-23.906-12.797-45.422-35.344-53.531-22.547-8.0625-47.156-0.51562-61.312 18.797l-346.78 474.94c-11.953 16.359-13.641 37.734-4.4531 55.781 9.1875 18.094 27.469 29.297 47.719 29.297h230.9l-21.234 361.36c-1.4062 23.859 12.797 45.375 35.297 53.484 6.0469 2.1562 12.234 3.2344 18.281 3.2344 16.688 0 32.672-7.8281 42.984-21.984l349.26-478.22c11.953-16.312 13.688-37.734 4.5469-55.781z" fill="#fff"/>
</svg>
