<?xml version="1.0" encoding="UTF-8"?>
<svg width="1200pt" height="1200pt" version="1.1" viewBox="0 0 1200 1200" xmlns="http://www.w3.org/2000/svg">
 <path d="m1083.4 256.43c-1.6914 0.023437-3.3555 0.21484-5.0977 0.58984l-260.1 54.023c-20.441 4.2422-27.973 29.504-13.242 44.297l49.922 49.922-176.25 176.19-148.36-148.36c-10.223-10.301-26.848-10.402-37.148-0.17188l-395.51 395.51c-10.23 10.301-10.188 26.926 0.11719 37.148l70.254 70.195c10.223 10.301 26.848 10.402 37.148 0.17969l308.55-308.55 148.48 148.54c10.301 10.23 26.984 10.129 37.207-0.17188l262.97-263.03 48.75 48.75c6.8164 6.8086 16.777 9.3047 26.016 6.5625 4.5547-1.3242 8.6602-3.8516 11.895-7.3242 3.2344-3.4766 5.5156-7.7773 6.5039-12.422l53.906-260.18c3.5508-16.836-9.6836-31.93-26.016-31.699z" fill="#fff"/>
</svg>
