<?xml version="1.0" encoding="UTF-8"?>
<svg width="1200pt" height="1200pt" version="1.1" viewBox="0 0 1200 1200" xmlns="http://www.w3.org/2000/svg">
 <path d="m750 937.5h-300c-20.625 0-37.5 16.875-37.5 37.5v37.5c0 61.875 50.625 112.5 112.5 112.5h150c61.875 0 112.5-50.625 112.5-112.5v-37.5c0-20.625-16.875-37.5-37.5-37.5z" fill="#fff"/>
 <path d="m589.5 75c-199.5 5.625-363 172.5-364.5 372-0.75 104.25 42.375 204.74 118.5 276 19.875 18.75 31.5 47.25 31.5 78v23.625c0 20.625 16.875 37.5 37.5 37.5h150v-300h-37.5c0 49.5-75 49.5-75 0v-75c0-49.5 75-49.5 75 0h150c0-49.5 75-49.5 75 0v75c0 49.5-75 49.5-75 0h-37.5v300h150c20.625 0 37.5-16.875 37.5-37.5v-23.625c0-30.75 11.625-59.25 31.5-78.375 75.375-70.5 118.5-170.26 118.5-273.37 0-213.74-177-381.37-385.5-375z" fill="#fff"/>
</svg>
