<?xml version="1.0" encoding="UTF-8"?>
<svg width="1200pt" height="1200pt" version="1.1" viewBox="0 0 1200 1200" xmlns="http://www.w3.org/2000/svg">
 <path d="m1063.1 460.22-131.06 1.7812h0.046875c-5.6719 0.1875-10.688-3.6562-12-9.1406l-20.062-80.859-139.92 97.922c-3.8438 2.6719-8.8594 2.9062-12.891 0.5625-4.0781-2.3438-6.375-6.8438-5.9531-11.484l22.547-255-75.234 29.531c-5.25 2.0625-11.25 0.23438-14.391-4.4531l-74.156-109.08-74.156 109.22c-3.1406 4.6875-9.1406 6.5156-14.391 4.4062l-75.234-29.625 22.547 254.86c0.42188 4.6875-1.875 9.1406-5.9531 11.484-4.0312 2.3438-9.0469 2.1562-12.891-0.5625l-139.92-97.781-20.156 80.625c-1.3594 5.4844-6.375 9.2812-12 9.1406l-131.06-1.7812 62.766 130.78c2.3906 4.875 1.2188 10.688-2.8594 14.297l-57.375 50.766 269.9 126.56c5.1094 2.3906 7.8281 8.0625 6.5625 13.547l-25.781 116.06 160.92-49.219h5.2969c0.60938-0.09375 1.2656-0.09375 1.9219 0 0.70312 0.09375 1.3594 0.28125 2.0156 0.60938l2.0625 1.3125 1.6875 1.3125 1.3125 1.9219 1.0781 2.0625c0.046875 0.79688 0.046875 1.5938 0 2.3906 0.046875 0.5625 0.046875 1.125 0 1.6875l-17.906 205.92h103.22l-19.078-204.94c-0.046875-0.51562-0.046875-0.98438 0-1.4531 0.046875-0.98438 0.28125-1.9688 0.60938-2.9062 0.1875-0.46875 0.42188-0.98438 0.70312-1.4062 0.42188-0.89062 1.0312-1.6875 1.6875-2.4375 0.375-0.42188 0.79688-0.75 1.3125-1.0781 0.65625-0.60938 1.4531-1.125 2.2969-1.5469 0.5625-0.28125 1.2188-0.51562 1.9219-0.60938 0.65625-0.09375 1.3594-0.09375 2.0156 0h5.9062l161.16 48.375-25.922-116.3c-1.2656-5.4844 1.4531-11.156 6.5625-13.547l269.76-126.1-57.328-50.766c-4.0781-3.5625-5.25-9.4219-2.9062-14.297z" fill="#fff"/>
</svg>
