<svg width="321" height="149" viewBox="0 0 321 149" fill="none" xmlns="http://www.w3.org/2000/svg">
<g clip-path="url(#clip0_562_460)">
<path d="M179.594 69.2291C165.606 69.2291 157.613 57.4537 157.613 43.3039C157.613 29.1542 165.606 17.3785 179.594 17.3785C186.065 17.3785 190.823 19.9426 193.963 23.6462V0H205.382V68.1846H193.963V62.9614C190.823 66.6652 186.065 69.2291 179.594 69.2291ZM194.249 41.8794C194.249 32.4779 188.92 27.3498 181.878 27.3498C173.599 27.3498 169.127 33.8074 169.127 43.3039C169.127 52.8004 173.599 59.258 181.878 59.258C188.92 59.258 194.249 54.0348 194.249 44.8233V41.8794Z" fill="white"/>
<path d="M148.754 0V68.1846H137.335V0H148.754Z" fill="white"/>
<path d="M113.727 11.6807V0H125.526V11.6807H113.727ZM125.336 18.3282V68.1846H113.917V18.3282H125.336Z" fill="white"/>
<path d="M101.882 18.3285V68.185H90.4634V62.8668C87.6084 66.1906 83.3264 69.2295 76.8556 69.2295C66.3884 69.2295 59.9176 62.1073 59.9176 51.3763V18.3285H71.3366V48.907C71.3366 54.9847 74.001 58.8785 80.1862 58.8785C85.3248 58.8785 90.4634 55.0797 90.4634 47.9575V18.3285H101.882Z" fill="white"/>
<path d="M0 68.1846V0H27.1198C41.774 0 49.577 6.36263 49.577 17.9483C49.577 26.4002 44.6287 30.7685 39.8708 32.6678C47.0078 34.947 51.7657 40.8349 51.7657 49.1916C51.7657 61.157 42.9158 68.1846 28.8327 68.1846H0ZM11.7043 28.2045H25.9779C33.7808 28.2045 38.0628 25.1656 38.0628 19.1829C38.0628 13.2001 33.7808 10.2562 25.9779 10.2562H11.7043V28.2045ZM11.7043 38.4606V57.9286H28.1666C35.8743 57.9286 40.0612 53.9399 40.0612 48.1471C40.0612 42.4494 35.8743 38.4606 28.1666 38.4606H11.7043Z" fill="white"/>
<path d="M291.056 148.81C281.541 148.81 274.214 143.017 274.214 134.09C274.214 124.594 281.351 120.415 290.961 118.421L304.759 115.572V114.718C304.759 109.969 302.285 107.026 296.195 107.026C290.771 107.026 287.916 109.495 286.584 114.338L275.831 111.869C278.305 103.607 285.633 97.1491 296.671 97.1491C308.661 97.1491 315.892 102.847 315.892 114.338V135.8C315.892 138.649 317.13 139.503 320.27 139.124V147.955C311.991 148.905 307.614 147.291 305.901 143.207C302.761 146.721 297.527 148.81 291.056 148.81ZM304.759 130.387V124.309L294.006 126.588C289.153 127.633 285.537 129.152 285.537 133.616C285.537 137.509 288.392 139.693 292.769 139.693C298.859 139.693 304.759 136.465 304.759 130.387Z" fill="white"/>
<path d="M240.079 149C226.091 149 218.098 137.224 218.098 123.074C218.098 108.925 226.091 97.1491 240.079 97.1491C246.55 97.1491 251.308 99.713 254.448 103.417V79.7705H265.867V147.955H254.448V142.732C251.308 146.436 246.55 149 240.079 149ZM254.733 121.65C254.733 112.248 249.404 107.12 242.363 107.12C234.084 107.12 229.612 113.578 229.612 123.074C229.612 132.571 234.084 139.029 242.363 139.029C249.404 139.029 254.733 133.805 254.733 124.594V121.65Z" fill="white"/>
<path d="M183.913 148.81C174.397 148.81 167.07 143.017 167.07 134.09C167.07 124.594 174.207 120.415 183.818 118.421L197.616 115.572V114.718C197.616 109.969 195.141 107.026 189.051 107.026C183.628 107.026 180.773 109.495 179.441 114.338L168.688 111.869C171.162 103.607 178.489 97.1491 189.527 97.1491C201.517 97.1491 208.749 102.847 208.749 114.338V135.8C208.749 138.649 209.986 139.503 213.126 139.124V147.955C204.848 148.905 200.47 147.291 198.758 143.207C195.617 146.721 190.384 148.81 183.913 148.81ZM197.616 130.387V124.309L186.863 126.588C182.01 127.633 178.394 129.152 178.394 133.616C178.394 137.509 181.249 139.693 185.626 139.693C191.716 139.693 197.616 136.465 197.616 130.387Z" fill="white"/>
<path d="M117.067 147.955V98.099H128.486V103.417C131.341 100.093 135.813 97.1491 142.284 97.1491C152.751 97.1491 159.032 104.367 159.032 115.098V147.955H147.613V118.421C147.613 112.248 145.139 107.785 138.858 107.785C133.72 107.785 128.486 111.584 128.486 118.706V147.955H117.067Z" fill="white"/>
<path d="M12.1802 113.863C12.1802 128.583 20.1734 138.269 31.4019 138.269C39.3953 138.269 45.1998 133.426 47.2934 125.449L58.712 129.342C54.7156 141.403 45.1998 149 31.4019 149C13.2269 149 0 134.565 0 113.863C0 93.1608 13.2269 78.726 31.4019 78.726C45.1998 78.726 54.7156 86.3232 58.712 98.384L47.2934 102.277C45.1998 94.3002 39.3953 89.457 31.4019 89.457C20.1734 89.457 12.1802 99.1435 12.1802 113.863Z" fill="white"/>
<path d="M79.7405 148.81C70.2247 148.81 62.8977 143.017 62.8977 134.09C62.8977 124.594 70.0344 120.415 79.6453 118.421L93.4431 115.572V114.718C93.4431 109.969 90.9692 107.026 84.8791 107.026C79.455 107.026 76.6003 109.494 75.2682 114.338L64.5154 111.869C66.9893 103.607 74.3163 97.1491 85.3546 97.1491C97.3447 97.1491 104.577 102.847 104.577 114.338V135.8C104.577 138.649 105.814 139.503 108.954 139.123V147.955C100.675 148.905 96.2978 147.291 94.5849 143.207C91.4447 146.721 86.2113 148.81 79.7405 148.81ZM93.4431 130.387V124.309L82.6903 126.588C77.8373 127.633 74.2212 129.152 74.2212 133.616C74.2212 137.509 77.0762 139.693 81.4534 139.693C87.5434 139.693 93.4431 136.465 93.4431 130.387Z" fill="white"/>
</g>
<defs>
<clipPath id="clip0_562_460">
<rect width="321" height="149" fill="white"/>
</clipPath>
</defs>
</svg>
