<svg width="575" height="92" viewBox="0 0 575 92" fill="none" xmlns="http://www.w3.org/2000/svg">
<path d="M179.594 80.2291C165.606 80.2291 157.613 68.4537 157.613 54.3039C157.613 40.1542 165.606 28.3785 179.594 28.3785C186.065 28.3785 190.823 30.9426 193.963 34.6462V11H205.382V79.1846H193.963V73.9614C190.823 77.6652 186.065 80.2291 179.594 80.2291ZM194.249 52.8794C194.249 43.4779 188.92 38.3498 181.878 38.3498C173.599 38.3498 169.127 44.8074 169.127 54.3039C169.127 63.8004 173.599 70.258 181.878 70.258C188.92 70.258 194.249 65.0348 194.249 55.8233V52.8794Z" fill="white"/>
<path d="M148.754 11V79.1846H137.335V11H148.754Z" fill="white"/>
<path d="M113.727 22.6807V11H125.526V22.6807H113.727ZM125.336 29.3282V79.1846H113.917V29.3282H125.336Z" fill="white"/>
<path d="M101.882 29.3285V79.185H90.4635V73.8668C87.6085 77.1906 83.3265 80.2295 76.8557 80.2295C66.3885 80.2295 59.9177 73.1073 59.9177 62.3763V29.3285H71.3367V59.907C71.3367 65.9847 74.001 69.8784 80.1863 69.8784C85.3249 69.8784 90.4635 66.0797 90.4635 58.9575V29.3285H101.882Z" fill="white"/>
<path d="M0 79.1846V11H27.1198C41.774 11 49.577 17.3626 49.577 28.9483C49.577 37.4002 44.6287 41.7685 39.8708 43.6678C47.0078 45.947 51.7657 51.8349 51.7657 60.1916C51.7657 72.157 42.9158 79.1846 28.8327 79.1846H0ZM11.7043 39.2045H25.9779C33.7808 39.2045 38.0628 36.1656 38.0628 30.1829C38.0628 24.2001 33.7808 21.2562 25.9779 21.2562H11.7043V39.2045ZM11.7043 49.4606V68.9286H28.1666C35.8743 68.9286 40.0612 64.9399 40.0612 59.1471C40.0612 53.4494 35.8743 49.4606 28.1666 49.4606H11.7043Z" fill="white"/>
<path d="M532.056 79.084C522.541 79.084 515.213 73.2913 515.213 64.3643C515.213 54.8678 522.35 50.6894 531.961 48.6951L545.759 45.8462V44.9917C545.759 40.2434 543.285 37.2996 537.195 37.2996C531.771 37.2996 528.916 39.7685 527.584 44.6117L516.831 42.1428C519.305 33.8808 526.632 27.4231 537.671 27.4231C549.66 27.4231 556.892 33.1212 556.892 44.6117V66.0737C556.892 68.9226 558.13 69.7775 561.27 69.3975V78.2291C552.991 79.179 548.614 77.5646 546.901 73.4809C543.761 76.9947 538.527 79.084 532.056 79.084ZM545.759 60.6609V54.5832L535.006 56.8621C530.153 57.907 526.537 59.4264 526.537 63.8897C526.537 67.7831 529.392 69.9674 533.769 69.9674C539.859 69.9674 545.759 66.7386 545.759 60.6609Z" fill="white"/>
<path d="M481.079 79.2736C467.091 79.2736 459.098 67.4981 459.098 53.3483C459.098 39.1985 467.091 27.423 481.079 27.423C487.55 27.423 492.308 29.987 495.448 33.6907V10.0444H506.867V78.2291H495.448V73.0059C492.308 76.7096 487.55 79.2736 481.079 79.2736ZM495.733 51.9239C495.733 42.5223 490.404 37.3941 483.363 37.3941C475.084 37.3941 470.612 43.8518 470.612 53.3483C470.612 62.8448 475.084 69.3025 483.363 69.3025C490.404 69.3025 495.733 64.0793 495.733 54.8677V51.9239Z" fill="white"/>
<path d="M424.913 79.084C415.397 79.084 408.07 73.2913 408.07 64.3643C408.07 54.8678 415.207 50.6894 424.818 48.6951L438.616 45.8462V44.9917C438.616 40.2434 436.141 37.2996 430.051 37.2996C424.628 37.2996 421.773 39.7685 420.441 44.6117L409.688 42.1428C412.162 33.8808 419.489 27.4231 430.527 27.4231C442.517 27.4231 449.749 33.1212 449.749 44.6117V66.0737C449.749 68.9226 450.986 69.7775 454.126 69.3975V78.2291C445.848 79.179 441.47 77.5646 439.757 73.4809C436.617 76.9947 431.384 79.084 424.913 79.084ZM438.616 60.6609V54.5832L427.863 56.8621C423.01 57.907 419.394 59.4264 419.394 63.8897C419.394 67.7831 422.248 69.9674 426.626 69.9674C432.716 69.9674 438.616 66.7386 438.616 60.6609Z" fill="white"/>
<path d="M358.067 78.2291V28.373H369.486V33.6908C372.341 30.367 376.813 27.4231 383.284 27.4231C393.751 27.4231 400.032 34.6407 400.032 45.3716V78.2291H388.613V48.6951C388.613 42.5224 386.139 38.0591 379.858 38.0591C374.72 38.0591 369.486 41.8578 369.486 48.98V78.2291H358.067Z" fill="white"/>
<path d="M253.18 44.1368C253.18 58.8565 261.173 68.543 272.402 68.543C280.395 68.543 286.2 63.6998 288.293 55.7227L299.712 59.616C295.716 71.6768 286.2 79.274 272.402 79.274C254.227 79.274 241 64.8392 241 44.1368C241 23.4347 254.227 9 272.402 9C286.2 9 295.716 16.5971 299.712 28.6579L288.293 32.5513C286.2 24.5742 280.395 19.731 272.402 19.731C261.173 19.731 253.18 29.4175 253.18 44.1368Z" fill="white"/>
<path d="M320.74 79.0839C311.225 79.0839 303.898 73.2911 303.898 64.3642C303.898 54.8677 311.034 50.6893 320.645 48.695L334.443 45.8461V44.9916C334.443 40.2433 331.969 37.2994 325.879 37.2994C320.455 37.2994 317.6 39.7684 316.268 44.6116L305.515 42.1427C307.989 33.8806 315.316 27.423 326.355 27.423C338.345 27.423 345.577 33.1211 345.577 44.6116V66.0736C345.577 68.9225 346.814 69.7773 349.954 69.3974V78.229C341.675 79.1789 337.298 77.5645 335.585 73.4807C332.445 76.9945 327.211 79.0839 320.74 79.0839ZM334.443 60.6608V54.5831L323.69 56.862C318.837 57.9069 315.221 59.4263 315.221 63.8896C315.221 67.783 318.076 69.9673 322.453 69.9673C328.543 69.9673 334.443 66.7385 334.443 60.6608Z" fill="white"/>
</svg>
