<svg width="110" height="128" viewBox="0 0 110 128" fill="none" xmlns="http://www.w3.org/2000/svg">
<path d="M74.7998 14.8C74.7998 14.8 73.3998 15.2 71.0998 15.9C70.6998 14.6 70.0998 13.1 69.2998 11.5C66.6998 6.5 62.7998 3.8 58.1998 3.8C57.8998 3.8 57.5998 3.8 57.1998 3.9C57.0998 3.7 56.8998 3.6 56.7998 3.4C54.7998 1.2 52.1998 0.2 49.0998 0.3C43.0998 0.5 37.0998 4.8 32.2998 12.5C28.8998 17.9 26.2998 24.7 25.5998 30C18.6998 32.1 13.8998 33.6 13.7998 33.7C10.2998 34.8 10.1998 34.9 9.7998 38.2C9.4998 40.7 0.299805 111.1 0.299805 111.1L75.8998 124.2V14.7C75.2998 14.7 74.9998 14.8 74.7998 14.8ZM57.2998 20.2C53.2998 21.4 48.8998 22.8 44.5998 24.1C45.7998 19.4 48.1998 14.7 50.9998 11.6C52.0998 10.5 53.5998 9.2 55.2998 8.4C56.9998 12 57.3998 16.9 57.2998 20.2ZM49.0998 4.4C50.4998 4.4 51.6998 4.7 52.6998 5.3C51.0998 6.1 49.4998 7.4 47.9998 8.9C44.1998 13 41.2998 19.4 40.0998 25.5C36.4998 26.6 32.8998 27.7 29.5998 28.7C31.7998 19.1 39.8998 4.6 49.0998 4.4ZM37.4998 59.4C37.8998 65.8 54.7998 67.2 55.7998 82.3C56.4998 94.2 49.4998 102.3 39.3998 102.9C27.1998 103.7 20.4998 96.5 20.4998 96.5L23.0998 85.5C23.0998 85.5 29.7998 90.6 35.1998 90.2C38.6998 90 39.9998 87.1 39.8998 85.1C39.3998 76.7 25.5998 77.2 24.6998 63.4C23.8998 51.8 31.4998 40.1 48.2998 39C54.7998 38.6 58.0998 40.2 58.0998 40.2L54.2998 54.6C54.2998 54.6 49.9998 52.6 44.8998 53C37.4998 53.5 37.3998 58.2 37.4998 59.4ZM61.2998 19C61.2998 16 60.8998 11.7 59.4998 8.1C64.0998 9 66.2998 14.1 67.2998 17.2C65.4998 17.7 63.4998 18.3 61.2998 19Z" fill="black"/>
<path d="M78.2002 124L109.6 116.2C109.6 116.2 96.1002 24.9 96.0002 24.3C95.9002 23.7 95.4002 23.3 94.9002 23.3C94.4002 23.3 85.6002 23.1 85.6002 23.1C85.6002 23.1 80.2002 17.9 78.2002 15.9V124Z" fill="black"/>
</svg>
